<?xml version="1.0" encoding="UTF-8" standalone="no"?>
<!DOCTYPE svg PUBLIC "-//W3C//DTD SVG 1.1//EN" "http://www.w3.org/Graphics/SVG/1.1/DTD/svg11.dtd">
<svg width="100%" height="100%" viewBox="0 0 44 67" version="1.1" xmlns="http://www.w3.org/2000/svg" xmlns:xlink="http://www.w3.org/1999/xlink" xml:space="preserve" xmlns:serif="http://www.serif.com/" style="fill-rule:evenodd;clip-rule:evenodd;stroke-linejoin:round;stroke-miterlimit:1.41421;">
    <g transform="matrix(1,0,0,1,-149.033,-63.5241)">
        <g transform="matrix(7.80423,0,0,7.80423,-1489,-1180.77)">
            <path d="M214.877,163.558C214.877,163.978 214.536,164.319 214.115,164.319C213.757,164.319 213.324,164.319 212.934,164.319C212.652,164.319 212.382,164.431 212.183,164.631C211.983,164.83 211.871,165.101 211.871,165.383C211.871,165.383 211.871,165.383 211.871,165.383C211.871,165.97 212.347,166.446 212.934,166.446C213.505,166.446 214.196,166.446 214.713,166.446C215.134,166.446 215.475,166.787 215.475,167.208C215.475,167.208 215.475,167.208 215.475,167.208C215.475,167.629 215.134,167.97 214.713,167.97C214.127,167.97 213.281,167.97 212.46,167.97C211.041,167.97 209.891,166.819 209.891,165.4C209.891,164.327 209.891,163.082 209.891,162.008C209.891,160.589 211.041,159.439 212.46,159.439C213.283,159.439 214.131,159.439 214.719,159.439C215.14,159.439 215.481,159.78 215.481,160.2C215.481,160.2 215.481,160.2 215.481,160.2C215.481,160.621 215.14,160.962 214.719,160.962C214.155,160.962 213.385,160.962 212.788,160.962C212.282,160.962 211.871,161.372 211.871,161.879C211.871,161.879 211.871,161.879 211.871,161.879C211.871,162.385 212.282,162.796 212.788,162.796C213.213,162.796 213.712,162.796 214.115,162.796C214.536,162.796 214.877,163.137 214.877,163.558C214.877,163.558 214.877,163.558 214.877,163.558Z" style="fill:url(#_Linear1);fill-rule:nonzero;"/>
            <clipPath id="_clip2">
                <path d="M214.877,163.558C214.877,163.978 214.536,164.319 214.115,164.319C213.757,164.319 213.324,164.319 212.934,164.319C212.652,164.319 212.382,164.431 212.183,164.631C211.983,164.83 211.871,165.101 211.871,165.383C211.871,165.383 211.871,165.383 211.871,165.383C211.871,165.97 212.347,166.446 212.934,166.446C213.505,166.446 214.196,166.446 214.713,166.446C215.134,166.446 215.475,166.787 215.475,167.208C215.475,167.208 215.475,167.208 215.475,167.208C215.475,167.629 215.134,167.97 214.713,167.97C214.127,167.97 213.281,167.97 212.46,167.97C211.041,167.97 209.891,166.819 209.891,165.4C209.891,164.327 209.891,163.082 209.891,162.008C209.891,160.589 211.041,159.439 212.46,159.439C213.283,159.439 214.131,159.439 214.719,159.439C215.14,159.439 215.481,159.78 215.481,160.2C215.481,160.2 215.481,160.2 215.481,160.2C215.481,160.621 215.14,160.962 214.719,160.962C214.155,160.962 213.385,160.962 212.788,160.962C212.282,160.962 211.871,161.372 211.871,161.879C211.871,161.879 211.871,161.879 211.871,161.879C211.871,162.385 212.282,162.796 212.788,162.796C213.213,162.796 213.712,162.796 214.115,162.796C214.536,162.796 214.877,163.137 214.877,163.558C214.877,163.558 214.877,163.558 214.877,163.558Z" clip-rule="nonzero"/>
            </clipPath>
            <g clip-path="url(#_clip2)">
                <g transform="matrix(0.128136,0,0,0.128136,196.384,151.299)">
                    <path d="M127.221,117.376C127.221,117.376 107.621,109.826 103.354,84.055L102.33,140.546L163.087,138.839C163.087,138.839 168.719,116.823 165.135,115.799C161.551,114.775 127.221,117.376 127.221,117.376Z" style="fill:url(#_Linear3);"/>
                </g>
                <g transform="matrix(0.128136,0,0,0.128136,196.384,151.299)">
                    <path d="M105.409,108.428C105.409,108.428 116.146,75.675 129.515,75.413C141.171,75.185 157.39,79.981 158.264,78.561C159.137,77.141 168.859,65.199 164.053,63.524C159.247,61.849 123.42,58.681 120.69,59.228C117.959,59.774 92.837,68.839 95.131,72.553C97.424,76.267 105.409,108.428 105.409,108.428Z" style="fill:url(#_Linear4);"/>
                </g>
            </g>
        </g>
    </g>
    <defs>
        <linearGradient id="_Linear1" x1="0" y1="0" x2="1" y2="0" gradientUnits="userSpaceOnUse" gradientTransform="matrix(-3.94847,4.83548e-16,-4.83548e-16,-3.94847,215.148,163.704)"><stop offset="0" style="stop-color:rgb(235,235,235);stop-opacity:1"/><stop offset="1" style="stop-color:rgb(163,163,163);stop-opacity:1"/></linearGradient>
        <linearGradient id="_Linear3" x1="0" y1="0" x2="1" y2="0" gradientUnits="userSpaceOnUse" gradientTransform="matrix(-0.109226,19.0054,-19.0054,-0.109226,115.159,108.729)"><stop offset="0" style="stop-color:rgb(26,122,230);stop-opacity:1"/><stop offset="1" style="stop-color:rgb(0,72,153);stop-opacity:1"/></linearGradient>
        <linearGradient id="_Linear4" x1="0" y1="0" x2="1" y2="0" gradientUnits="userSpaceOnUse" gradientTransform="matrix(1.45609e-15,-23.7797,23.7797,1.45609e-15,119.349,93.0848)"><stop offset="0" style="stop-color:rgb(242,175,13);stop-opacity:1"/><stop offset="1" style="stop-color:rgb(218,230,26);stop-opacity:1"/></linearGradient>
    </defs>
</svg>
